<svg width="111" height="99" viewBox="0 0 111 99" fill="none" xmlns="http://www.w3.org/2000/svg">
<g filter="url(#filter0_dii_1_19)">
<path d="M65 72.8571C65 71.2792 66.2792 70 67.8571 70H70V72.1429C70 73.7208 68.7208 75 67.1429 75C65.9594 75 65 74.0406 65 72.8571Z" fill="#379ADC"/>
</g>
<g filter="url(#filter1_dii_1_19)">
<path d="M55 84.8571C55 83.2792 56.2792 82 57.8571 82H60V84.1429C60 85.7208 58.7208 87 57.1429 87C55.9594 87 55 86.0406 55 84.8571Z" fill="#379ADC"/>
</g>
<g filter="url(#filter2_dii_1_19)">
<path d="M46 72.8571C46 71.2792 47.2792 70 48.8571 70H51V72.1429C51 73.7208 49.7208 75 48.1429 75C46.9594 75 46 74.0406 46 72.8571Z" fill="#379ADC"/>
</g>
<g filter="url(#filter3_dii_1_19)">
<path d="M36 84.8571C36 83.2792 37.2792 82 38.8571 82H41V84.1429C41 85.7208 39.7208 87 38.1429 87C36.9594 87 36 86.0406 36 84.8571Z" fill="#379ADC"/>
</g>
<g filter="url(#filter4_dii_1_19)">
<path d="M27 72.8571C27 71.2792 28.2792 70 29.8571 70H32V72.1429C32 73.7208 30.7208 75 29.1429 75C27.9594 75 27 74.0406 27 72.8571Z" fill="#379ADC"/>
</g>
<g filter="url(#filter5_di_1_19)">
<circle cx="42" cy="29" r="21" fill="#FBCA1C"/>
<circle cx="42" cy="29" r="21" fill="url(#paint0_radial_1_19)" fill-opacity="0.2"/>
</g>
<g filter="url(#filter6_di_1_19)">
<path d="M82.9711 42C82.9902 41.6691 83 41.3357 83 41C83 31.6112 75.3889 24 66 24C61.4821 24 57.3759 25.7624 54.3312 28.6372C52.7911 28.2216 51.1714 28 49.5 28C43.4546 28 38.0865 30.8997 34.7106 35.3841C33.6815 35.1331 32.6063 35 31.5 35C24.0441 35 18 41.0442 18 48.5C18 48.5348 18.0001 48.5695 18.0004 48.6042C18.0001 48.6286 18 48.653 18 48.6774C18 57.6921 25.3079 65 34.3226 65H60C72.7026 65 83 54.7025 83 42H82.9711Z" fill="white"/>
<path d="M82.9711 42C82.9902 41.6691 83 41.3357 83 41C83 31.6112 75.3889 24 66 24C61.4821 24 57.3759 25.7624 54.3312 28.6372C52.7911 28.2216 51.1714 28 49.5 28C43.4546 28 38.0865 30.8997 34.7106 35.3841C33.6815 35.1331 32.6063 35 31.5 35C24.0441 35 18 41.0442 18 48.5C18 48.5348 18.0001 48.5695 18.0004 48.6042C18.0001 48.6286 18 48.653 18 48.6774C18 57.6921 25.3079 65 34.3226 65H60C72.7026 65 83 54.7025 83 42H82.9711Z" fill="url(#paint1_radial_1_19)" fill-opacity="0.2"/>
</g>
<g filter="url(#filter7_di_1_19)">
<path d="M66 46.5C66 38.4919 72.4919 32 80.5 32H83C89.6274 32 95 37.3726 95 44C95 50.6274 89.6274 56 83 56H74C69.5817 56 66 52.4183 66 48V46.5Z" fill="white"/>
<path d="M66 46.5C66 38.4919 72.4919 32 80.5 32H83C89.6274 32 95 37.3726 95 44C95 50.6274 89.6274 56 83 56H74C69.5817 56 66 52.4183 66 48V46.5Z" fill="url(#paint2_radial_1_19)" fill-opacity="0.2"/>
</g>
<g filter="url(#filter8_di_1_19)">
<path d="M32 56C32 50.4772 27.5228 46 22 46H20.5C15.8056 46 12 49.8056 12 54.5C12 59.1944 15.8056 63 20.5 63H26.3333C29.4629 63 32 60.4629 32 57.3333V56Z" fill="white"/>
<path d="M32 56C32 50.4772 27.5228 46 22 46H20.5C15.8056 46 12 49.8056 12 54.5C12 59.1944 15.8056 63 20.5 63H26.3333C29.4629 63 32 60.4629 32 57.3333V56Z" fill="url(#paint3_radial_1_19)" fill-opacity="0.2"/>
</g>
<defs>
<filter id="filter0_dii_1_19" x="57" y="66" width="21" height="21" filterUnits="userSpaceOnUse" color-interpolation-filters="sRGB">
<feFlood flood-opacity="0" result="BackgroundImageFix"/>
<feColorMatrix in="SourceAlpha" type="matrix" values="0 0 0 0 0 0 0 0 0 0 0 0 0 0 0 0 0 0 127 0" result="hardAlpha"/>
<feOffset dy="4"/>
<feGaussianBlur stdDeviation="4"/>
<feComposite in2="hardAlpha" operator="out"/>
<feColorMatrix type="matrix" values="0 0 0 0 0.282353 0 0 0 0 0.517647 0 0 0 0 0.933333 0 0 0 0.2 0"/>
<feBlend mode="normal" in2="BackgroundImageFix" result="effect1_dropShadow_1_19"/>
<feBlend mode="normal" in="SourceGraphic" in2="effect1_dropShadow_1_19" result="shape"/>
<feColorMatrix in="SourceAlpha" type="matrix" values="0 0 0 0 0 0 0 0 0 0 0 0 0 0 0 0 0 0 127 0" result="hardAlpha"/>
<feOffset/>
<feGaussianBlur stdDeviation="1"/>
<feComposite in2="hardAlpha" operator="arithmetic" k2="-1" k3="1"/>
<feColorMatrix type="matrix" values="0 0 0 0 0 0 0 0 0 0 0 0 0 0 0 0 0 0 0.25 0"/>
<feBlend mode="normal" in2="shape" result="effect2_innerShadow_1_19"/>
<feColorMatrix in="SourceAlpha" type="matrix" values="0 0 0 0 0 0 0 0 0 0 0 0 0 0 0 0 0 0 127 0" result="hardAlpha"/>
<feOffset dy="-1"/>
<feGaussianBlur stdDeviation="1"/>
<feComposite in2="hardAlpha" operator="arithmetic" k2="-1" k3="1"/>
<feColorMatrix type="matrix" values="0 0 0 0 0 0 0 0 0 0 0 0 0 0 0 0 0 0 0.25 0"/>
<feBlend mode="normal" in2="effect2_innerShadow_1_19" result="effect3_innerShadow_1_19"/>
</filter>
<filter id="filter1_dii_1_19" x="47" y="78" width="21" height="21" filterUnits="userSpaceOnUse" color-interpolation-filters="sRGB">
<feFlood flood-opacity="0" result="BackgroundImageFix"/>
<feColorMatrix in="SourceAlpha" type="matrix" values="0 0 0 0 0 0 0 0 0 0 0 0 0 0 0 0 0 0 127 0" result="hardAlpha"/>
<feOffset dy="4"/>
<feGaussianBlur stdDeviation="4"/>
<feComposite in2="hardAlpha" operator="out"/>
<feColorMatrix type="matrix" values="0 0 0 0 0.282353 0 0 0 0 0.517647 0 0 0 0 0.933333 0 0 0 0.2 0"/>
<feBlend mode="normal" in2="BackgroundImageFix" result="effect1_dropShadow_1_19"/>
<feBlend mode="normal" in="SourceGraphic" in2="effect1_dropShadow_1_19" result="shape"/>
<feColorMatrix in="SourceAlpha" type="matrix" values="0 0 0 0 0 0 0 0 0 0 0 0 0 0 0 0 0 0 127 0" result="hardAlpha"/>
<feOffset/>
<feGaussianBlur stdDeviation="1"/>
<feComposite in2="hardAlpha" operator="arithmetic" k2="-1" k3="1"/>
<feColorMatrix type="matrix" values="0 0 0 0 0 0 0 0 0 0 0 0 0 0 0 0 0 0 0.25 0"/>
<feBlend mode="normal" in2="shape" result="effect2_innerShadow_1_19"/>
<feColorMatrix in="SourceAlpha" type="matrix" values="0 0 0 0 0 0 0 0 0 0 0 0 0 0 0 0 0 0 127 0" result="hardAlpha"/>
<feOffset dy="-1"/>
<feGaussianBlur stdDeviation="1"/>
<feComposite in2="hardAlpha" operator="arithmetic" k2="-1" k3="1"/>
<feColorMatrix type="matrix" values="0 0 0 0 0 0 0 0 0 0 0 0 0 0 0 0 0 0 0.25 0"/>
<feBlend mode="normal" in2="effect2_innerShadow_1_19" result="effect3_innerShadow_1_19"/>
</filter>
<filter id="filter2_dii_1_19" x="38" y="66" width="21" height="21" filterUnits="userSpaceOnUse" color-interpolation-filters="sRGB">
<feFlood flood-opacity="0" result="BackgroundImageFix"/>
<feColorMatrix in="SourceAlpha" type="matrix" values="0 0 0 0 0 0 0 0 0 0 0 0 0 0 0 0 0 0 127 0" result="hardAlpha"/>
<feOffset dy="4"/>
<feGaussianBlur stdDeviation="4"/>
<feComposite in2="hardAlpha" operator="out"/>
<feColorMatrix type="matrix" values="0 0 0 0 0.282353 0 0 0 0 0.517647 0 0 0 0 0.933333 0 0 0 0.2 0"/>
<feBlend mode="normal" in2="BackgroundImageFix" result="effect1_dropShadow_1_19"/>
<feBlend mode="normal" in="SourceGraphic" in2="effect1_dropShadow_1_19" result="shape"/>
<feColorMatrix in="SourceAlpha" type="matrix" values="0 0 0 0 0 0 0 0 0 0 0 0 0 0 0 0 0 0 127 0" result="hardAlpha"/>
<feOffset/>
<feGaussianBlur stdDeviation="1"/>
<feComposite in2="hardAlpha" operator="arithmetic" k2="-1" k3="1"/>
<feColorMatrix type="matrix" values="0 0 0 0 0 0 0 0 0 0 0 0 0 0 0 0 0 0 0.25 0"/>
<feBlend mode="normal" in2="shape" result="effect2_innerShadow_1_19"/>
<feColorMatrix in="SourceAlpha" type="matrix" values="0 0 0 0 0 0 0 0 0 0 0 0 0 0 0 0 0 0 127 0" result="hardAlpha"/>
<feOffset dy="-1"/>
<feGaussianBlur stdDeviation="1"/>
<feComposite in2="hardAlpha" operator="arithmetic" k2="-1" k3="1"/>
<feColorMatrix type="matrix" values="0 0 0 0 0 0 0 0 0 0 0 0 0 0 0 0 0 0 0.25 0"/>
<feBlend mode="normal" in2="effect2_innerShadow_1_19" result="effect3_innerShadow_1_19"/>
</filter>
<filter id="filter3_dii_1_19" x="28" y="78" width="21" height="21" filterUnits="userSpaceOnUse" color-interpolation-filters="sRGB">
<feFlood flood-opacity="0" result="BackgroundImageFix"/>
<feColorMatrix in="SourceAlpha" type="matrix" values="0 0 0 0 0 0 0 0 0 0 0 0 0 0 0 0 0 0 127 0" result="hardAlpha"/>
<feOffset dy="4"/>
<feGaussianBlur stdDeviation="4"/>
<feComposite in2="hardAlpha" operator="out"/>
<feColorMatrix type="matrix" values="0 0 0 0 0.282353 0 0 0 0 0.517647 0 0 0 0 0.933333 0 0 0 0.2 0"/>
<feBlend mode="normal" in2="BackgroundImageFix" result="effect1_dropShadow_1_19"/>
<feBlend mode="normal" in="SourceGraphic" in2="effect1_dropShadow_1_19" result="shape"/>
<feColorMatrix in="SourceAlpha" type="matrix" values="0 0 0 0 0 0 0 0 0 0 0 0 0 0 0 0 0 0 127 0" result="hardAlpha"/>
<feOffset/>
<feGaussianBlur stdDeviation="1"/>
<feComposite in2="hardAlpha" operator="arithmetic" k2="-1" k3="1"/>
<feColorMatrix type="matrix" values="0 0 0 0 0 0 0 0 0 0 0 0 0 0 0 0 0 0 0.25 0"/>
<feBlend mode="normal" in2="shape" result="effect2_innerShadow_1_19"/>
<feColorMatrix in="SourceAlpha" type="matrix" values="0 0 0 0 0 0 0 0 0 0 0 0 0 0 0 0 0 0 127 0" result="hardAlpha"/>
<feOffset dy="-1"/>
<feGaussianBlur stdDeviation="1"/>
<feComposite in2="hardAlpha" operator="arithmetic" k2="-1" k3="1"/>
<feColorMatrix type="matrix" values="0 0 0 0 0 0 0 0 0 0 0 0 0 0 0 0 0 0 0.25 0"/>
<feBlend mode="normal" in2="effect2_innerShadow_1_19" result="effect3_innerShadow_1_19"/>
</filter>
<filter id="filter4_dii_1_19" x="19" y="66" width="21" height="21" filterUnits="userSpaceOnUse" color-interpolation-filters="sRGB">
<feFlood flood-opacity="0" result="BackgroundImageFix"/>
<feColorMatrix in="SourceAlpha" type="matrix" values="0 0 0 0 0 0 0 0 0 0 0 0 0 0 0 0 0 0 127 0" result="hardAlpha"/>
<feOffset dy="4"/>
<feGaussianBlur stdDeviation="4"/>
<feComposite in2="hardAlpha" operator="out"/>
<feColorMatrix type="matrix" values="0 0 0 0 0.282353 0 0 0 0 0.517647 0 0 0 0 0.933333 0 0 0 0.2 0"/>
<feBlend mode="normal" in2="BackgroundImageFix" result="effect1_dropShadow_1_19"/>
<feBlend mode="normal" in="SourceGraphic" in2="effect1_dropShadow_1_19" result="shape"/>
<feColorMatrix in="SourceAlpha" type="matrix" values="0 0 0 0 0 0 0 0 0 0 0 0 0 0 0 0 0 0 127 0" result="hardAlpha"/>
<feOffset/>
<feGaussianBlur stdDeviation="1"/>
<feComposite in2="hardAlpha" operator="arithmetic" k2="-1" k3="1"/>
<feColorMatrix type="matrix" values="0 0 0 0 0 0 0 0 0 0 0 0 0 0 0 0 0 0 0.25 0"/>
<feBlend mode="normal" in2="shape" result="effect2_innerShadow_1_19"/>
<feColorMatrix in="SourceAlpha" type="matrix" values="0 0 0 0 0 0 0 0 0 0 0 0 0 0 0 0 0 0 127 0" result="hardAlpha"/>
<feOffset dy="-1"/>
<feGaussianBlur stdDeviation="1"/>
<feComposite in2="hardAlpha" operator="arithmetic" k2="-1" k3="1"/>
<feColorMatrix type="matrix" values="0 0 0 0 0 0 0 0 0 0 0 0 0 0 0 0 0 0 0.25 0"/>
<feBlend mode="normal" in2="effect2_innerShadow_1_19" result="effect3_innerShadow_1_19"/>
</filter>
<filter id="filter5_di_1_19" x="13" y="0" width="58" height="58" filterUnits="userSpaceOnUse" color-interpolation-filters="sRGB">
<feFlood flood-opacity="0" result="BackgroundImageFix"/>
<feColorMatrix in="SourceAlpha" type="matrix" values="0 0 0 0 0 0 0 0 0 0 0 0 0 0 0 0 0 0 127 0" result="hardAlpha"/>
<feMorphology radius="3" operator="dilate" in="SourceAlpha" result="effect1_dropShadow_1_19"/>
<feOffset/>
<feGaussianBlur stdDeviation="2.5"/>
<feComposite in2="hardAlpha" operator="out"/>
<feColorMatrix type="matrix" values="0 0 0 0 0.984314 0 0 0 0 0.792157 0 0 0 0 0.109804 0 0 0 0.2 0"/>
<feBlend mode="normal" in2="BackgroundImageFix" result="effect1_dropShadow_1_19"/>
<feBlend mode="normal" in="SourceGraphic" in2="effect1_dropShadow_1_19" result="shape"/>
<feColorMatrix in="SourceAlpha" type="matrix" values="0 0 0 0 0 0 0 0 0 0 0 0 0 0 0 0 0 0 127 0" result="hardAlpha"/>
<feOffset/>
<feGaussianBlur stdDeviation="4.5"/>
<feComposite in2="hardAlpha" operator="arithmetic" k2="-1" k3="1"/>
<feColorMatrix type="matrix" values="0 0 0 0 0.984314 0 0 0 0 0.529569 0 0 0 0 0.109804 0 0 0 0.5 0"/>
<feBlend mode="normal" in2="shape" result="effect2_innerShadow_1_19"/>
</filter>
<filter id="filter6_di_1_19" x="2" y="18" width="97" height="73" filterUnits="userSpaceOnUse" color-interpolation-filters="sRGB">
<feFlood flood-opacity="0" result="BackgroundImageFix"/>
<feColorMatrix in="SourceAlpha" type="matrix" values="0 0 0 0 0 0 0 0 0 0 0 0 0 0 0 0 0 0 127 0" result="hardAlpha"/>
<feOffset dy="10"/>
<feGaussianBlur stdDeviation="8"/>
<feComposite in2="hardAlpha" operator="out"/>
<feColorMatrix type="matrix" values="0 0 0 0 0.301961 0 0 0 0 0.368627 0 0 0 0 0.435294 0 0 0 0.08 0"/>
<feBlend mode="normal" in2="BackgroundImageFix" result="effect1_dropShadow_1_19"/>
<feBlend mode="normal" in="SourceGraphic" in2="effect1_dropShadow_1_19" result="shape"/>
<feColorMatrix in="SourceAlpha" type="matrix" values="0 0 0 0 0 0 0 0 0 0 0 0 0 0 0 0 0 0 127 0" result="hardAlpha"/>
<feOffset/>
<feGaussianBlur stdDeviation="3"/>
<feComposite in2="hardAlpha" operator="arithmetic" k2="-1" k3="1"/>
<feColorMatrix type="matrix" values="0 0 0 0 0.301961 0 0 0 0 0.368627 0 0 0 0 0.435294 0 0 0 0.08 0"/>
<feBlend mode="normal" in2="shape" result="effect2_innerShadow_1_19"/>
</filter>
<filter id="filter7_di_1_19" x="50" y="21" width="61" height="56" filterUnits="userSpaceOnUse" color-interpolation-filters="sRGB">
<feFlood flood-opacity="0" result="BackgroundImageFix"/>
<feColorMatrix in="SourceAlpha" type="matrix" values="0 0 0 0 0 0 0 0 0 0 0 0 0 0 0 0 0 0 127 0" result="hardAlpha"/>
<feOffset dy="5"/>
<feGaussianBlur stdDeviation="8"/>
<feComposite in2="hardAlpha" operator="out"/>
<feColorMatrix type="matrix" values="0 0 0 0 0 0 0 0 0 0 0 0 0 0 0 0 0 0 0.14 0"/>
<feBlend mode="normal" in2="BackgroundImageFix" result="effect1_dropShadow_1_19"/>
<feBlend mode="normal" in="SourceGraphic" in2="effect1_dropShadow_1_19" result="shape"/>
<feColorMatrix in="SourceAlpha" type="matrix" values="0 0 0 0 0 0 0 0 0 0 0 0 0 0 0 0 0 0 127 0" result="hardAlpha"/>
<feOffset/>
<feGaussianBlur stdDeviation="5.5"/>
<feComposite in2="hardAlpha" operator="arithmetic" k2="-1" k3="1"/>
<feColorMatrix type="matrix" values="0 0 0 0 0.301961 0 0 0 0 0.368627 0 0 0 0 0.435294 0 0 0 0.08 0"/>
<feBlend mode="normal" in2="shape" result="effect2_innerShadow_1_19"/>
</filter>
<filter id="filter8_di_1_19" x="0" y="37" width="44" height="41" filterUnits="userSpaceOnUse" color-interpolation-filters="sRGB">
<feFlood flood-opacity="0" result="BackgroundImageFix"/>
<feColorMatrix in="SourceAlpha" type="matrix" values="0 0 0 0 0 0 0 0 0 0 0 0 0 0 0 0 0 0 127 0" result="hardAlpha"/>
<feOffset dy="3"/>
<feGaussianBlur stdDeviation="6"/>
<feComposite in2="hardAlpha" operator="out"/>
<feColorMatrix type="matrix" values="0 0 0 0 0.301961 0 0 0 0 0.368627 0 0 0 0 0.435294 0 0 0 0.14 0"/>
<feBlend mode="normal" in2="BackgroundImageFix" result="effect1_dropShadow_1_19"/>
<feBlend mode="normal" in="SourceGraphic" in2="effect1_dropShadow_1_19" result="shape"/>
<feColorMatrix in="SourceAlpha" type="matrix" values="0 0 0 0 0 0 0 0 0 0 0 0 0 0 0 0 0 0 127 0" result="hardAlpha"/>
<feOffset/>
<feGaussianBlur stdDeviation="2"/>
<feComposite in2="hardAlpha" operator="arithmetic" k2="-1" k3="1"/>
<feColorMatrix type="matrix" values="0 0 0 0 0.301961 0 0 0 0 0.368627 0 0 0 0 0.435294 0 0 0 0.11 0"/>
<feBlend mode="normal" in2="shape" result="effect2_innerShadow_1_19"/>
</filter>
<radialGradient id="paint0_radial_1_19" cx="0" cy="0" r="1" gradientUnits="userSpaceOnUse" gradientTransform="translate(37 21) rotate(50.7106) scale(28.4253 19.8578)">
<stop stop-color="#FBCA1C"/>
<stop offset="1" stop-color="#E4750E"/>
</radialGradient>
<radialGradient id="paint1_radial_1_19" cx="0" cy="0" r="1" gradientUnits="userSpaceOnUse" gradientTransform="translate(63.5 28) rotate(121.827) scale(51.1981 81.1678)">
<stop stop-opacity="0"/>
<stop offset="1" stop-color="#4D5E6F"/>
</radialGradient>
<radialGradient id="paint2_radial_1_19" cx="0" cy="0" r="1" gradientUnits="userSpaceOnUse" gradientTransform="translate(62.5 22) rotate(49.5378) scale(44.6878 30.2267)">
<stop stop-color="#4D5E6F" stop-opacity="0"/>
<stop offset="1" stop-color="#4D5E6F" stop-opacity="0.54"/>
</radialGradient>
<radialGradient id="paint3_radial_1_19" cx="0" cy="0" r="1" gradientUnits="userSpaceOnUse" gradientTransform="translate(22 42) rotate(90) scale(23 27.0588)">
<stop stop-color="#4D5E6F" stop-opacity="0"/>
<stop offset="1" stop-color="#4D5E6F" stop-opacity="0.62"/>
</radialGradient>
</defs>
</svg>
